<svg width="130" height="56" viewBox="0 0 130 56" fill="none" xmlns="http://www.w3.org/2000/svg">
<path d="M64.6759 4.0257C55.9908 12.9803 52.9071 24.1691 51.0589 36.0923C41.3708 31.2827 31.7138 31.1172 21.7646 35.7173C25.3473 26.1834 31.0262 18.6898 38.9953 12.8769C47.2074 6.88559 57.5314 3.99467 64.6759 4.0257Z" fill="white"/>
<path d="M83.5738 36.0716C81.6196 24.195 78.5746 12.9803 69.8042 3.87054C80.2367 4.50924 89.3328 7.77769 97.1779 14.1C104.175 19.7396 109.577 26.6618 112.622 35.3863C102.844 31.1197 93.2566 31.2749 83.5738 36.0716Z" fill="white"/>
<path d="M52.6174 35.919C54.2175 25.7102 56.8773 16.2255 63.1637 8.13194C64.0554 6.98385 65.1747 6.01158 66.1388 4.9152C67.0099 3.92484 67.6949 4.11619 68.5945 4.96174C72.1357 8.30002 74.6198 12.3416 76.6282 16.7116C79.288 22.5013 80.7717 28.6296 81.7876 34.8873C81.8264 35.1329 81.7928 35.3889 81.7928 35.8388C72.0866 31.2051 62.4528 31.2077 52.6174 35.919Z" fill="white"/>
<path d="M55.1713 55.2815C55.1713 51.9924 55.1713 48.8299 55.1713 45.6649C55.1015 45.6494 55.0292 45.6339 54.9594 45.6184C54.7965 46.0347 54.6078 46.4406 54.4734 46.8673C53.7186 49.2437 53 51.6355 52.2065 53.9989C52.041 54.4903 51.6068 54.891 51.2966 55.3332C50.9709 54.9091 50.5056 54.5316 50.3428 54.0532C49.5648 51.7752 48.872 49.466 48.1405 47.1724C47.9906 46.6992 47.8045 46.2389 47.4141 45.8097C47.4141 48.9204 47.4141 52.0286 47.4141 55.2375C46.799 55.2375 46.3104 55.2375 45.7366 55.2375C45.7366 51.4209 45.7366 47.5577 45.7366 43.4902C46.6594 43.4902 47.6339 43.423 48.5903 43.5316C48.8565 43.5626 49.1641 44.0746 49.283 44.4263C50.0093 46.5673 50.684 48.7239 51.4827 51.2089C52.3745 48.4343 53.1629 45.9881 53.9564 43.5239C55.0292 43.5239 56.0528 43.5239 57.1617 43.5239C57.1617 47.4517 57.1617 51.3407 57.1617 55.2841C56.5258 55.2815 55.9416 55.2815 55.1713 55.2815Z" fill="white"/>
<path d="M59.974 43.4798C61.6257 43.4798 63.1741 43.4618 64.7224 43.485C66.6611 43.5161 67.7131 44.1935 68.1474 45.6364C68.579 47.0664 68.1474 48.0567 66.5086 49.272C68.1034 49.8539 68.8246 50.9735 68.6333 52.6284C68.4524 54.2083 67.2194 55.2659 65.366 55.3228C63.6032 55.3771 61.8377 55.3358 59.9714 55.3358C59.974 51.4002 59.974 47.5111 59.974 43.4798ZM61.9153 53.5516C62.9776 53.5516 63.9599 53.6059 64.9318 53.536C65.9192 53.4662 66.5422 52.8767 66.5241 51.863C66.506 50.8675 65.8908 50.2624 64.9034 50.1952C63.9314 50.1279 62.9544 50.1797 61.9153 50.1797C61.9153 51.3226 61.9153 52.3388 61.9153 53.5516ZM61.9308 45.1218C61.9308 46.3061 61.9308 47.356 61.9308 48.517C62.9053 48.517 63.8048 48.5816 64.6888 48.4989C65.7021 48.4032 66.2087 47.7128 66.2061 46.7328C66.2061 45.7528 65.5651 45.2279 64.6604 45.1399C63.7789 45.0546 62.882 45.1218 61.9308 45.1218Z" fill="white"/>
<path d="M120.426 43.4825C122.174 43.4825 123.807 43.4463 125.436 43.4928C127.248 43.5445 128.263 44.2867 128.656 45.7321C129.047 47.1621 128.628 48.0852 127.315 49.0213C127.917 49.8746 128.788 50.6426 129.049 51.5812C129.569 53.4507 128.289 55.1134 126.268 55.2686C124.353 55.4159 122.417 55.2996 120.424 55.2996C120.426 51.3588 120.426 47.5034 120.426 43.4825ZM122.429 50.1771C122.429 51.3821 122.429 52.4268 122.429 53.5568C123.461 53.5568 124.399 53.5955 125.335 53.5464C126.32 53.4973 126.984 52.962 127.01 51.9484C127.036 50.8856 126.397 50.2624 125.35 50.19C124.415 50.1254 123.471 50.1771 122.429 50.1771ZM122.388 48.5067C123.432 48.5067 124.332 48.5713 125.221 48.4886C126.175 48.4007 126.658 47.7361 126.692 46.8156C126.728 45.8407 126.146 45.2589 125.226 45.1632C124.306 45.0676 123.37 45.1426 122.388 45.1426C122.388 46.3088 122.388 47.3301 122.388 48.5067Z" fill="white"/>
<path d="M79.8723 55.2944C79.0529 55.2944 78.4144 55.2944 77.7087 55.2944C77.2822 54.167 76.7678 53.0707 76.4577 51.9174C76.1475 50.7641 75.5788 50.2444 74.3665 50.4538C73.9167 50.5314 73.4411 50.4668 72.8363 50.4668C72.8363 52.1243 72.8363 53.6525 72.8363 55.2582C72.0789 55.2582 71.4637 55.2582 70.7891 55.2582C70.7891 51.3563 70.7891 47.5008 70.7891 43.5808C72.9112 43.5808 75.0076 43.4773 77.0858 43.6144C78.5953 43.7152 79.6215 44.6771 79.9162 46.2053C80.2548 47.9714 79.5905 49.3161 77.8923 50.172C78.5514 51.8786 79.1925 53.5387 79.8723 55.2944ZM72.8621 48.8584C74.1571 48.7912 75.3126 48.7989 76.4499 48.6489C77.3934 48.5248 77.9801 47.7672 77.7915 46.9087C77.6519 46.2803 77.0186 45.4218 76.4654 45.3003C75.3358 45.0495 74.1106 45.2253 72.8621 45.2253C72.8621 46.3915 72.8621 47.4957 72.8621 48.8584Z" fill="white"/>
<path d="M11.8283 55.3073C11.0167 55.3073 10.4609 55.3073 9.8147 55.3073C9.8147 51.3873 9.8147 47.4956 9.8147 43.5419C10.4376 43.5419 11.0218 43.5419 11.774 43.5419C11.774 45.1167 11.774 46.6837 11.774 48.3179C13.3766 48.3179 14.8138 48.3179 16.3725 48.3179C16.3725 46.7251 16.3725 45.1917 16.3725 43.5704C17.1066 43.5704 17.7192 43.5704 18.4068 43.5704C18.4068 47.4491 18.4068 51.3071 18.4068 55.2504C17.7787 55.2504 17.1635 55.2504 16.4268 55.2504C16.4268 53.5981 16.4268 51.9794 16.4268 50.2624C14.8707 50.2624 13.4309 50.2624 11.8283 50.2624C11.8283 51.9018 11.8283 53.5542 11.8283 55.3073Z" fill="white"/>
<path d="M118.743 55.2634C116.557 55.4134 116.505 55.4289 115.998 53.6137C115.753 52.7371 115.324 52.4035 114.447 52.5251C114.067 52.5768 113.672 52.5328 113.287 52.5328C111.09 52.5328 111.149 52.5613 110.226 54.586C110.012 55.0566 109.234 55.2686 108.714 55.5996C108.598 55.4755 108.484 55.3539 108.368 55.2298C108.593 54.4722 108.799 53.7068 109.045 52.9543C109.913 50.2935 110.865 47.6586 111.645 44.9745C111.994 43.7773 112.558 43.2575 113.788 43.4696C114.119 43.5265 114.471 43.4773 114.845 43.4773C116.146 47.4155 117.428 51.2891 118.743 55.2634ZM115.039 50.7952C114.452 49.0472 113.91 47.4414 113.248 45.471C112.597 47.4905 112.077 49.1015 111.532 50.7952C112.749 50.7952 113.796 50.7952 115.039 50.7952Z" fill="white"/>
<path d="M23.2251 45.1968C23.2251 46.3656 23.2251 47.2965 23.2251 48.4084C24.6519 48.4084 26.0374 48.4084 27.4927 48.4084C27.4927 49.0497 27.4927 49.5073 27.4927 50.1254C26.1201 50.1254 24.7295 50.1254 23.2561 50.1254C23.2561 51.3277 23.2561 52.3724 23.2561 53.5257C25.0577 53.5257 26.8051 53.5257 28.6559 53.5257C28.6559 54.154 28.6559 54.6764 28.6559 55.2685C26.1615 55.2685 23.6929 55.2685 21.1624 55.2685C21.1624 51.3562 21.1624 47.5059 21.1624 43.5677C23.6076 43.5677 26.0322 43.5677 28.5551 43.5677C28.5551 44.0668 28.5551 44.5581 28.5551 45.1968C26.8413 45.1968 25.1043 45.1968 23.2251 45.1968Z" fill="white"/>
<path d="M89.7153 53.58C89.7153 54.2394 89.7153 54.7049 89.7153 55.253C87.2002 55.253 84.7317 55.253 82.1804 55.253C82.1804 51.3873 82.1804 47.537 82.1804 43.5833C84.6102 43.5833 87.071 43.5833 89.5886 43.5833C89.5886 44.1212 89.5886 44.6176 89.5886 45.2589C87.7896 45.2589 86.05 45.2589 84.2483 45.2589C84.2483 46.3682 84.2483 47.3301 84.2483 48.4291C85.6777 48.4291 87.0322 48.4291 88.4746 48.4291C88.4746 49.0523 88.4746 49.541 88.4746 50.1383C87.0968 50.1383 85.7346 50.1383 84.2716 50.1383C84.2716 51.2916 84.2716 52.3363 84.2716 53.58C86.0913 53.58 87.9033 53.58 89.7153 53.58Z" fill="white"/>
<path d="M35.0351 43.5419C35.7098 43.5419 36.2913 43.5419 37.0358 43.5419C37.0358 46.151 37.0125 48.7187 37.0435 51.2864C37.0616 52.8818 37.7182 53.6059 39.1166 53.7119C40.5874 53.8231 41.4869 52.9801 41.5076 51.3536C41.5412 48.7808 41.5179 46.2079 41.5179 43.56C42.0633 43.56 42.5079 43.56 43.012 43.56C43.012 46.6656 43.1231 49.7504 42.9655 52.8198C42.8853 54.3764 41.5774 55.1056 40.1325 55.4082C36.9453 56.0753 35.0041 54.5342 34.9679 51.2968C34.942 48.9333 34.9653 46.5673 34.9679 44.2013C34.9679 44.0281 35.0015 43.86 35.0351 43.5419Z" fill="white"/>
<path d="M5.35583 55.2892C4.4899 55.2892 3.85661 55.2892 3.107 55.2892C3.107 51.9846 3.107 48.7239 3.107 45.3287C2.0317 45.3287 1.06755 45.3287 0 45.3287C0 44.6719 0 44.1496 0 43.5497C2.74512 43.5497 5.48508 43.5497 8.32842 43.5497C8.32842 44.072 8.32842 44.5943 8.32842 45.2098C7.37461 45.2098 6.43889 45.2098 5.35325 45.2098C5.35583 48.5842 5.35583 51.876 5.35583 55.2892Z" fill="white"/>
<path d="M98.8012 55.2866C96.4257 55.2866 94.1226 55.2866 91.7419 55.2866C91.7419 51.3536 91.7419 47.4749 91.7419 43.5367C92.4295 43.5367 93.0602 43.5367 93.8486 43.5367C93.8486 46.7819 93.8486 50.0219 93.8486 53.4119C95.565 53.4119 97.134 53.4119 98.7986 53.4119C98.8012 54.0946 98.8012 54.6273 98.8012 55.2866Z" fill="white"/>
<path d="M100.804 43.5419C101.539 43.5419 102.169 43.5419 102.958 43.5419C102.958 46.8414 102.958 50.0814 102.958 53.4714C104.677 53.4714 106.246 53.4714 107.879 53.4714C107.879 54.123 107.879 54.6247 107.879 55.2323C105.563 55.2323 103.232 55.2323 100.804 55.2323C100.804 51.3847 100.804 47.506 100.804 43.5419Z" fill="white"/>
<path d="M68.5944 2.05789C67.5888 2.05789 66.9969 2.05789 66.0715 2.05789C66.268 1.34421 66.3223 0.671896 66.648 0.183179C66.7927 -0.0340283 67.7362 -0.0676444 67.8861 0.134048C68.2376 0.609836 68.3307 1.27956 68.5944 2.05789Z" fill="white"/>
</svg>
