<?xml version="1.0" encoding="utf-8"?>
<!-- Generator: Adobe Illustrator 23.0.0, SVG Export Plug-In . SVG Version: 6.00 Build 0)  -->
<svg version="1.1" id="Layer_1" xmlns="http://www.w3.org/2000/svg" xmlns:xlink="http://www.w3.org/1999/xlink" x="0px" y="0px"
	 viewBox="0 0 595.28 841.89" style="enable-background:new 0 0 595.28 841.89;" xml:space="preserve">
<style type="text/css">
	.st0{display:none;fill:#FFFFFF;}
</style>
<g>
	<path class="st0" d="M-201,921.89c0-333.33,0-666.67,0-1000c333.33,0,666.67,0,1000,0c0,333.33,0,666.67,0,1000
		C465.67,921.89,132.33,921.89-201,921.89z M299.66,288.38c-27.64-0.12-67.58,11.06-99.35,34.23
		c-30.83,22.48-52.79,51.47-66.66,88.33c38.49-17.8,75.85-17.15,113.33,1.45C254.13,366.28,266.06,323.01,299.66,288.38z
		 M372.77,412.31c37.46-18.55,74.55-19.15,112.38-2.65c-11.78-33.74-32.68-60.51-59.75-82.32c-30.35-24.45-65.54-37.09-105.9-39.56
		C353.43,323.01,365.21,366.38,372.77,412.31z M253.01,411.72c38.05-18.22,75.32-18.23,112.86-0.31c0-1.73,0.13-2.73-0.02-3.68
		c-3.93-24.2-9.67-47.9-19.96-70.29c-7.77-16.9-17.38-32.53-31.08-45.44c-3.47-3.27-6.12-4.02-9.5-0.18
		c-3.73,4.24-8.06,8-11.51,12.44C269.49,335.56,259.2,372.24,253.01,411.72z M262.89,486.6c2.98,0,5.24,0,7.71,0
		c0-15.25,0-30.29,0-45.48c-4.3,0-8.26,0-12.4,0c-3.07,9.53-6.12,18.99-9.57,29.72c-3.09-9.61-5.71-17.95-8.51-26.23
		c-0.46-1.35-1.65-3.34-2.68-3.46c-3.69-0.42-7.46-0.16-11.04-0.16c0,15.73,0,30.67,0,45.43c2.22,0,4.11,0,6.49,0
		c0-12.41,0-24.43,0-36.46c1.5,1.66,2.22,3.45,2.81,5.27c2.83,8.87,5.51,17.8,8.52,26.61c0.63,1.85,2.43,3.31,3.69,4.95
		c1.2-1.71,2.89-3.26,3.52-5.16c3.07-9.14,5.85-18.39,8.77-27.58c0.52-1.64,1.25-3.22,1.88-4.83c0.27,0.06,0.55,0.12,0.82,0.18
		C262.89,461.65,262.89,473.88,262.89,486.6z M281.47,440.96c0,15.59,0,30.62,0,45.84c7.22,0,14.05,0.16,20.87-0.05
		c7.17-0.22,11.93-4.3,12.64-10.42c0.74-6.4-2.05-10.73-8.22-12.98c6.34-4.7,8.01-8.53,6.34-14.06c-1.68-5.58-5.76-8.2-13.25-8.32
		C293.85,440.89,287.86,440.96,281.47,440.96z M515.34,440.97c0,15.55,0,30.46,0,45.71c7.71,0,15.2,0.45,22.61-0.12
		c7.82-0.6,12.77-7.03,10.76-14.26c-1.01-3.63-4.38-6.59-6.71-9.9c5.08-3.62,6.7-7.19,5.19-12.72c-1.52-5.59-5.44-8.46-12.46-8.66
		C528.41,440.83,522.09,440.97,515.34,440.97z M358.45,486.65c-2.63-6.79-5.11-13.22-7.66-19.81c6.57-3.31,9.15-8.51,7.83-15.34
		c-1.14-5.91-5.1-9.63-10.95-10.02c-8.05-0.53-16.16-0.13-24.36-0.13c0,15.16,0,30.07,0,45.16c2.62,0,5,0,7.92,0
		c0-6.21,0-12.11,0-18.53c2.34,0,4.18,0.25,5.92-0.05c4.68-0.81,6.89,1.2,8.09,5.66c1.2,4.46,3.19,8.71,4.84,13.06
		C352.81,486.65,355.28,486.65,358.45,486.65z M95.21,486.7c0-6.78,0-13.17,0-19.5c6.21,0,11.77,0,17.79,0c0,6.63,0,12.9,0,19.29
		c2.85,0,5.23,0,7.66,0c0-15.25,0-30.17,0-45.17c-2.66,0-5.04,0-7.87,0c0,6.27,0,12.2,0,18.36c-6.03,0-11.59,0-17.79,0
		c0-6.33,0-12.38,0-18.47c-2.9,0-5.17,0-7.58,0c0,15.29,0,30.33,0,45.5C89.92,486.7,92.07,486.7,95.21,486.7z M508.83,486.53
		c-5.08-15.37-10.04-30.35-15.08-45.57c-1.45,0-2.81,0.19-4.09-0.03c-4.77-0.83-6.94,1.18-8.29,5.82
		c-3.02,10.38-6.7,20.58-10.06,30.86c-0.95,2.91-1.75,5.86-2.62,8.8c0.45,0.48,0.89,0.95,1.34,1.43c2.01-1.28,5.02-2.1,5.85-3.92
		c3.57-7.83,3.33-7.94,11.84-7.94c1.5,0,3.02,0.17,4.49-0.03c3.39-0.47,5.05,0.82,6,4.21C500.17,487.17,500.37,487.12,508.83,486.53
		z M139.3,447.6c7.27,0,13.99,0,20.61,0c0-2.47,0-4.37,0-6.3c-9.76,0-19.14,0-28.6,0c0,15.23,0,30.12,0,45.25
		c9.79,0,19.34,0,28.99,0c0-2.3,0-4.32,0-6.74c-7.16,0-13.92,0-20.89,0c0-4.46,0-8.5,0-13.15c5.7,0,11.07,0,16.39,0
		c0-2.39,0-4.16,0-6.64c-5.62,0-10.99,0-16.51,0C139.3,455.72,139.3,452.12,139.3,447.6z M396.53,480.02c-7,0-14.02,0-21.05,0
		c0-4.81,0-8.85,0-13.31c5.66,0,10.92,0,16.26,0c0-2.32,0-4.2,0-6.61c-5.58,0-10.82,0-16.35,0c0-4.25,0-7.98,0-12.26
		c6.97,0,13.7,0,20.66,0c0-2.48,0-4.4,0-6.48c-9.74,0-19.26,0-28.66,0c0,15.29,0,30.19,0,45.13c9.86,0,19.41,0,29.15,0
		C396.53,484.37,396.53,482.58,396.53,480.02z M184.99,441.2c-0.13,1.23-0.26,1.89-0.26,2.55c-0.02,9.15-0.11,18.29,0,27.44
		c0.14,12.52,7.65,18.48,19.98,15.9c5.6-1.17,10.65-3.99,10.96-10.01c0.62-11.87,0.18-23.8,0.18-35.81c-1.95,0-3.67,0-5.78,0
		c0,10.24,0.1,20.19-0.04,30.14c-0.08,6.29-3.56,9.56-9.25,9.12c-5.41-0.41-7.95-3.21-8.02-9.38c-0.12-9.93-0.03-19.86-0.03-29.95
		C189.85,441.2,187.59,441.2,184.99,441.2z M70.17,486.63c0-13.2,0-25.92,0-38.98c4.2,0,7.82,0,11.51,0c0-2.39,0-4.41,0-6.42
		c-11,0-21.6,0-32.22,0c0,2.31,0,4.34,0,6.88c4.12,0,7.86,0,12.02,0c0,13.13,0,25.74,0,38.52
		C64.37,486.63,66.82,486.63,70.17,486.63z M431.68,486.62c0-2.55,0-4.61,0-7.25c-6.45,0-12.51,0-19.15,0c0-13.11,0-25.64,0-38.19
		c-3.05,0-5.49,0-8.15,0c0,15.23,0,30.23,0,45.44C413.58,486.62,422.49,486.62,431.68,486.62z M439.43,441.2
		c0,15.33,0,30.33,0,45.21c9.39,0,18.41,0,27.37,0c0-2.35,0-4.29,0-6.81c-6.32,0-12.39,0-19.04,0c0-13.11,0-25.64,0-38.4
		C444.71,441.2,442.27,441.2,439.43,441.2z M314.82,280.77c-1.01-3.01-1.38-5.6-2.74-7.44c-0.58-0.78-4.23-0.65-4.79,0.19
		c-1.26,1.89-1.47,4.49-2.23,7.25C308.64,280.77,310.93,280.77,314.82,280.77z"/>
	<path d="M299.66,288.38c-33.6,34.63-45.53,77.9-52.68,124.01c-37.48-18.6-74.84-19.24-113.33-1.45
		c13.86-36.87,35.83-65.85,66.66-88.33C232.08,299.44,272.02,288.26,299.66,288.38z"/>
	<path d="M372.77,412.31c-7.56-45.93-19.34-89.3-53.27-124.53c40.36,2.47,75.55,15.11,105.9,39.56
		c27.07,21.81,47.97,48.58,59.75,82.32C447.32,393.16,410.23,393.76,372.77,412.31z"/>
	<path d="M253.01,411.72c6.19-39.48,16.48-76.16,40.8-107.46c3.45-4.44,7.78-8.2,11.51-12.44c3.37-3.83,6.02-3.09,9.5,0.18
		c13.7,12.91,23.31,28.54,31.08,45.44c10.29,22.39,16.03,46.09,19.96,70.29c0.15,0.95,0.02,1.94,0.02,3.68
		C328.33,393.49,291.06,393.5,253.01,411.72z"/>
	<path d="M262.89,486.6c0-12.72,0-24.95,0-37.19c-0.27-0.06-0.55-0.12-0.82-0.18c-0.63,1.61-1.36,3.18-1.88,4.83
		c-2.92,9.19-5.7,18.44-8.77,27.58c-0.64,1.9-2.32,3.45-3.52,5.16c-1.26-1.64-3.06-3.1-3.69-4.95c-3.01-8.81-5.69-17.74-8.52-26.61
		c-0.58-1.83-1.3-3.61-2.81-5.27c0,12.03,0,24.05,0,36.46c-2.38,0-4.27,0-6.49,0c0-14.76,0-29.7,0-45.43
		c3.57,0,7.34-0.26,11.04,0.16c1.03,0.12,2.22,2.1,2.68,3.46c2.81,8.28,5.42,16.62,8.51,26.23c3.45-10.73,6.5-20.19,9.57-29.72
		c4.15,0,8.11,0,12.4,0c0,15.19,0,30.23,0,45.48C268.13,486.6,265.87,486.6,262.89,486.6z"/>
	<path d="M281.47,440.96c6.39,0,12.38-0.07,18.37,0.02c7.5,0.12,11.57,2.74,13.25,8.32c1.67,5.53,0,9.36-6.34,14.06
		c6.17,2.25,8.96,6.58,8.22,12.98c-0.7,6.11-5.47,10.2-12.64,10.42c-6.82,0.21-13.65,0.05-20.87,0.05
		C281.47,471.59,281.47,456.55,281.47,440.96z M288.98,479.91c4.11,0,7.91,0.21,11.67-0.06c3.82-0.27,6.23-2.55,6.16-6.47
		c-0.07-3.85-2.45-6.19-6.27-6.45c-3.76-0.26-7.54-0.06-11.56-0.06C288.98,471.29,288.98,475.22,288.98,479.91z M289.04,447.31
		c0,4.58,0,8.64,0,13.13c3.77,0,7.25,0.25,10.67-0.07c3.92-0.37,5.88-3.04,5.87-6.83c0-3.79-2.48-5.82-5.98-6.16
		C296.19,447.05,292.72,447.31,289.04,447.31z"/>
	<path d="M515.34,440.97c6.76,0,13.08-0.14,19.38,0.04c7.01,0.2,10.94,3.07,12.46,8.66c1.51,5.53-0.11,9.1-5.19,12.72
		c2.33,3.3,5.7,6.27,6.71,9.9c2.01,7.23-2.94,13.66-10.76,14.26c-7.41,0.57-14.9,0.12-22.61,0.12
		C515.34,471.43,515.34,456.52,515.34,440.97z M523.09,466.86c0,4.66,0,8.7,0,13.07c3.99,0,7.62,0.15,11.24-0.04
		c3.81-0.19,6.38-2.26,6.48-6.18c0.1-4.11-2.37-6.52-6.42-6.8C530.77,466.66,527.12,466.86,523.09,466.86z M522.93,460.4
		c4.04,0,7.52,0.25,10.96-0.07c3.69-0.34,5.56-2.91,5.69-6.47c0.14-3.77-2.11-6.02-5.67-6.39c-3.56-0.37-7.18-0.08-10.98-0.08
		C522.93,451.9,522.93,455.85,522.93,460.4z"/>
	<path d="M358.45,486.65c-3.17,0-5.64,0-8.37,0c-1.65-4.36-3.64-8.6-4.84-13.06c-1.2-4.46-3.4-6.47-8.09-5.66
		c-1.74,0.3-3.58,0.05-5.92,0.05c0,6.41,0,12.32,0,18.53c-2.93,0-5.31,0-7.92,0c0-15.09,0-30,0-45.16c8.21,0,16.32-0.4,24.36,0.13
		c5.84,0.39,9.81,4.11,10.95,10.02c1.31,6.83-1.26,12.03-7.83,15.34C353.34,473.44,355.82,479.86,358.45,486.65z M331.33,461.76
		c5.01-0.26,9.48-0.23,13.88-0.81c3.65-0.48,5.92-3.41,5.19-6.73c-0.54-2.43-2.99-5.75-5.13-6.22c-4.37-0.97-9.11-0.29-13.94-0.29
		C331.33,452.22,331.33,456.49,331.33,461.76z"/>
	<path d="M95.21,486.7c-3.14,0-5.29,0-7.79,0c0-15.16,0-30.21,0-45.5c2.41,0,4.67,0,7.58,0c0,6.09,0,12.15,0,18.47
		c6.2,0,11.76,0,17.79,0c0-6.16,0-12.09,0-18.36c2.84,0,5.21,0,7.87,0c0,15,0,29.92,0,45.17c-2.43,0-4.81,0-7.66,0
		c0-6.39,0-12.65,0-19.29c-6.02,0-11.59,0-17.79,0C95.21,473.53,95.21,479.92,95.21,486.7z"/>
	<path d="M508.83,486.53c-8.46,0.58-8.66,0.64-10.62-6.38c-0.95-3.39-2.61-4.68-6-4.21c-1.47,0.2-3,0.03-4.49,0.03
		c-8.5,0-8.27,0.11-11.84,7.94c-0.83,1.82-3.84,2.64-5.85,3.92c-0.45-0.48-0.89-0.95-1.34-1.43c0.87-2.93,1.67-5.89,2.62-8.8
		c3.36-10.29,7.04-20.48,10.06-30.86c1.35-4.63,3.53-6.64,8.29-5.82c1.28,0.22,2.64,0.03,4.09,0.03
		C498.78,456.18,503.74,471.16,508.83,486.53z M494.5,469.25c-2.27-6.76-4.37-12.97-6.93-20.59c-2.52,7.81-4.53,14.04-6.64,20.59
		C485.64,469.25,489.69,469.25,494.5,469.25z"/>
	<path d="M139.3,447.6c0,4.52,0,8.12,0,12.42c5.52,0,10.88,0,16.51,0c0,2.48,0,4.25,0,6.64c-5.31,0-10.69,0-16.39,0
		c0,4.65,0,8.69,0,13.15c6.97,0,13.73,0,20.89,0c0,2.43,0,4.45,0,6.74c-9.65,0-19.2,0-28.99,0c0-15.13,0-30.02,0-45.25
		c9.46,0,18.84,0,28.6,0c0,1.93,0,3.83,0,6.3C153.29,447.6,146.57,447.6,139.3,447.6z"/>
	<path d="M396.53,480.02c0,2.55,0,4.35,0,6.47c-9.73,0-19.28,0-29.15,0c0-14.95,0-29.84,0-45.13c9.4,0,18.92,0,28.66,0
		c0,2.08,0,4,0,6.48c-6.96,0-13.69,0-20.66,0c0,4.29,0,8.01,0,12.26c5.53,0,10.77,0,16.35,0c0,2.41,0,4.3,0,6.61
		c-5.33,0-10.6,0-16.26,0c0,4.46,0,8.5,0,13.31C382.51,480.02,389.52,480.02,396.53,480.02z"/>
	<path d="M184.99,441.2c2.61,0,4.86,0,7.74,0c0,10.09-0.09,20.02,0.03,29.95c0.07,6.17,2.61,8.97,8.02,9.38
		c5.69,0.43,9.17-2.83,9.25-9.12c0.13-9.95,0.04-19.9,0.04-30.14c2.11,0,3.83,0,5.78,0c0,12.01,0.43,23.94-0.18,35.81
		c-0.31,6.02-5.37,8.84-10.96,10.01c-12.33,2.58-19.84-3.38-19.98-15.9c-0.1-9.14-0.01-18.29,0-27.44
		C184.73,443.08,184.86,442.43,184.99,441.2z"/>
	<path d="M70.17,486.63c-3.35,0-5.8,0-8.7,0c0-12.78,0-25.39,0-38.52c-4.16,0-7.89,0-12.02,0c0-2.54,0-4.56,0-6.88
		c10.62,0,21.22,0,32.22,0c0,2.02,0,4.04,0,6.42c-3.69,0-7.31,0-11.51,0C70.17,460.7,70.17,473.43,70.17,486.63z"/>
	<path d="M431.68,486.62c-9.19,0-18.1,0-27.31,0c0-15.21,0-30.21,0-45.44c2.66,0,5.1,0,8.15,0c0,12.55,0,25.08,0,38.19
		c6.64,0,12.71,0,19.15,0C431.68,482.01,431.68,484.07,431.68,486.62z"/>
	<path d="M439.43,441.2c2.84,0,5.28,0,8.33,0c0,12.76,0,25.29,0,38.4c6.65,0,12.72,0,19.04,0c0,2.52,0,4.46,0,6.81
		c-8.96,0-17.98,0-27.37,0C439.43,471.53,439.43,456.53,439.43,441.2z"/>
	<path d="M314.82,280.77c-3.89,0-6.18,0-9.76,0c0.76-2.76,0.97-5.36,2.23-7.25c0.56-0.84,4.21-0.97,4.79-0.19
		C313.44,275.17,313.8,277.76,314.82,280.77z"/>
	<path class="st0" d="M288.98,479.91c0-4.69,0-8.62,0-13.04c4.02,0,7.81-0.21,11.56,0.06c3.82,0.27,6.2,2.61,6.27,6.45
		c0.07,3.92-2.34,6.2-6.16,6.47C296.89,480.12,293.09,479.91,288.98,479.91z"/>
	<path class="st0" d="M289.04,447.31c3.68,0,7.15-0.26,10.57,0.07c3.5,0.34,5.97,2.37,5.98,6.16c0,3.8-1.96,6.47-5.87,6.83
		c-3.43,0.32-6.9,0.07-10.67,0.07C289.04,455.95,289.04,451.89,289.04,447.31z"/>
	<path class="st0" d="M523.09,466.86c4.04,0,7.68-0.2,11.29,0.05c4.05,0.28,6.52,2.69,6.42,6.8c-0.09,3.92-2.67,5.98-6.48,6.18
		c-3.62,0.18-7.25,0.04-11.24,0.04C523.09,475.56,523.09,471.52,523.09,466.86z"/>
	<path class="st0" d="M522.93,460.4c0-4.55,0-8.5,0-13.01c3.8,0,7.43-0.29,10.98,0.08c3.55,0.37,5.81,2.62,5.67,6.39
		c-0.13,3.56-2,6.13-5.69,6.47C530.46,460.65,526.97,460.4,522.93,460.4z"/>
	<path class="st0" d="M331.33,461.76c0-5.27,0-9.54,0-14.05c4.83,0,9.56-0.68,13.94,0.29c2.14,0.47,4.59,3.8,5.13,6.22
		c0.73,3.32-1.54,6.25-5.19,6.73C340.81,461.53,336.34,461.5,331.33,461.76z"/>
	<path class="st0" d="M494.5,469.25c-4.81,0-8.86,0-13.58,0c2.11-6.55,4.12-12.79,6.64-20.59
		C490.14,456.28,492.23,462.49,494.5,469.25z"/>
</g>
</svg>
